<svg width="559.27" height="403.71" viewBox="0 0 147.97 106.81" xmlns="http://www.w3.org/2000/svg"><defs><linearGradient id="a"><stop offset="0"/><stop offset="1" stop-opacity="0"/></linearGradient><linearGradient id="d" x1="127.84" y1=".66" x2="127.84" y2="255.34" gradientUnits="userSpaceOnUse"><stop stop-color="#fff"/><stop offset="1" stop-color="#fff" stop-opacity="0"/></linearGradient><filter id="b" x="-21.49" y="40.52" width="298.82" height="236.15" filterUnits="userSpaceOnUse" color-interpolation-filters="sRGB"><feFlood flood-opacity="0" result="BackgroundImageFix"/><feColorMatrix in="SourceAlpha" values="0 0 0 0 0 0 0 0 0 0 0 0 0 0 0 0 0 0 127 0"/><feOffset/><feGaussianBlur stdDeviation="10.67"/><feColorMatrix values="0 0 0 0 0 0 0 0 0 0 0 0 0 0 0 0 0 0 0.25 0"/><feBlend mode="overlay" in2="BackgroundImageFix" result="effect1_dropShadow"/><feBlend in="SourceGraphic" in2="effect1_dropShadow" result="shape"/></filter><filter id="c" x="154.67" y="-20.67" width="122.67" height="297.35" filterUnits="userSpaceOnUse" color-interpolation-filters="sRGB"><feFlood flood-opacity="0" result="BackgroundImageFix"/><feColorMatrix in="SourceAlpha" values="0 0 0 0 0 0 0 0 0 0 0 0 0 0 0 0 0 0 127 0"/><feOffset/><feGaussianBlur stdDeviation="10.67"/><feColorMatrix values="0 0 0 0 0 0 0 0 0 0 0 0 0 0 0 0 0 0 0.25 0"/><feBlend mode="overlay" in2="BackgroundImageFix" result="effect1_dropShadow"/><feBlend in="SourceGraphic" in2="effect1_dropShadow" result="shape"/></filter></defs><g transform="translate(-49.93 -47.72)"><rect width="147.97" height="106.81" x="49.93" y="47.72" ry=".17" fill="#335562"/><ellipse cx="175.01" cy="105.15" rx="3.01" ry="2.16" fill="#212122" stroke="#000" stroke-width=".13" stroke-linejoin="round" paint-order="stroke fill markers"/><g transform="matrix(.72402 0 0 .70358 35.36 -19.36)"><rect width="135.74" height="70.08" x="89.12" y="177.49" ry="4" fill="#4a8dc7"/><rect width="1.92" height="62.55" x="97.44" y="182.49" ry=".96" fill="#121d4e" fill-opacity=".28"/><rect width="128.46" height="66.25" x="92.75" y="180.47" ry="3.1" fill="none" stroke="#0c2973" stroke-width="1.57" stroke-linecap="round" stroke-linejoin="round" stroke-opacity=".56"/><rect width="1.92" height="62.55" x="103.61" y="182.49" ry=".96" fill="#121d4e" fill-opacity=".28"/><rect width="1.92" height="62.55" x="109.77" y="182.49" ry=".96" fill="#121d4e" fill-opacity=".28"/><rect width="1.92" height="62.55" x="115.94" y="182.49" ry=".96" fill="#121d4e" fill-opacity=".28"/><rect width="1.92" height="62.55" x="122.1" y="182.49" ry=".96" fill="#121d4e" fill-opacity=".28"/><rect width="1.92" height="62.55" x="128.26" y="182.49" ry=".96" fill="#121d4e" fill-opacity=".28"/><rect width="1.92" height="62.55" x="134.43" y="182.49" ry=".96" fill="#121d4e" fill-opacity=".28"/><rect width="1.92" height="62.55" x="140.59" y="182.49" ry=".96" fill="#121d4e" fill-opacity=".28"/><rect width="1.92" height="62.55" x="146.76" y="182.49" ry=".96" fill="#121d4e" fill-opacity=".28"/><rect width="1.92" height="62.55" x="152.92" y="182.49" ry=".96" fill="#121d4e" fill-opacity=".28"/><rect width="1.92" height="62.55" x="159.08" y="182.49" ry=".96" fill="#121d4e" fill-opacity=".28"/><rect width="1.92" height="62.55" x="165.25" y="182.49" ry=".96" fill="#121d4e" fill-opacity=".28"/><rect width="1.92" height="62.55" x="171.41" y="182.49" ry=".96" fill="#121d4e" fill-opacity=".28"/><rect width="1.92" height="62.55" x="177.58" y="182.49" ry=".96" fill="#121d4e" fill-opacity=".28"/><rect width="1.92" height="62.55" x="183.74" y="182.49" ry=".96" fill="#121d4e" fill-opacity=".28"/><rect width="1.92" height="62.55" x="189.9" y="182.49" ry=".96" fill="#121d4e" fill-opacity=".28"/><rect width="1.92" height="62.55" x="196.07" y="182.49" ry=".96" fill="#121d4e" fill-opacity=".28"/><rect width="1.92" height="62.55" x="202.23" y="182.49" ry=".96" fill="#121d4e" fill-opacity=".28"/><rect width="1.92" height="62.55" x="208.4" y="182.49" ry=".96" fill="#121d4e" fill-opacity=".28"/><rect width="1.92" height="62.55" x="214.56" y="182.66" ry=".96" fill="#121d4e" fill-opacity=".28"/></g><g opacity=".34" fill="none" fill-rule="evenodd"><path style="-inkscape-stroke:none" d="M148.61 111.69v6.05h-12.1v6.05h-6.05v6.18h-5.17l-.09.91c-.28 3.06.14 6.11 1.4 8.9l.54 1.11.06.1c3.74 6.34 10.29 9.01 17.43 9.01 13.83 0 25.23-6.17 30.47-19.22 3.5.18 7.08-.85 8.8-4.2l.43-.85-.83-.48a9.25 9.25 0 00-7.02-.65c-.28-2.44-1.89-4.58-3.8-6.12l-.75-.6-.64.73c-1.27 1.48-1.66 3.93-1.48 5.82.13 1.39.56 2.8 1.42 3.91-.65.4-1.39.7-2.05.93-1.33.45-2.79.7-4.2.7h-3.06v-6.18h-6.05v-12.1z" color="#000" fill="#364548"/><path d="M175.52 125.87c.4-3.15-1.95-5.63-3.41-6.8-1.69 1.95-1.95 7.06.7 9.2-1.48 1.32-4.6 2.5-7.78 2.5h-38.77c-.31 3.33.27 6.4 1.6 9.01l.45.81a14.96 14.96 0 00.91 1.37c1.6.1 3.06.14 4.4.11 2.65-.06 4.8-.37 6.44-.94a.47.47 0 01.3.88c-.21.08-.44.15-.67.22a20.23 20.23 0 01-4.56.74l-.2.01a49.85 49.85 0 01-4.84-.02l-.02.02c3.23 3.63 8.28 5.81 14.61 5.81 13.4 0 24.77-5.94 29.8-19.27 3.58.36 7-.55 8.57-3.6-2.49-1.43-5.69-.97-7.53-.05" fill="#22a0c8"/><path d="M175.52 125.87c.4-3.15-1.95-5.63-3.41-6.8-1.69 1.95-1.95 7.06.7 9.2-1.48 1.32-4.6 2.5-7.78 2.5h-36.48c-.16 5.1 1.73 8.96 5.08 11.3 2.64-.06 4.8-.37 6.43-.94a.47.47 0 01.3.88c-.21.08-.44.15-.67.22-1.29.36-2.79.64-4.57.75l-.04-.04c4.56 2.34 11.17 2.33 18.75-.58 8.5-3.26 16.42-9.49 21.94-16.6l-.25.11" fill="#37b1d9"/><path d="M126.33 134.82a15.5 15.5 0 001.53 4.96l.45.81a14.93 14.93 0 00.91 1.37c1.6.1 3.06.14 4.4.11 2.65-.06 4.8-.37 6.44-.94a.47.47 0 01.3.88c-.21.08-.44.15-.67.22-1.29.36-2.78.63-4.56.74h-.23a39.93 39.93 0 01-4.86 0c3.23 3.64 8.31 5.82 14.64 5.82 11.48 0 21.46-4.35 27.25-13.97h-45.6" fill="#1b81a5"/><path d="M128.9 134.82a11.64 11.64 0 004.73 7.25c2.64-.06 4.8-.37 6.43-.94a.47.47 0 01.3.88c-.21.08-.44.15-.67.22-1.29.36-2.81.63-4.6.74 4.57 2.34 11.16 2.3 18.74-.6 4.59-1.77 9-4.4 12.96-7.55H128.9" fill="#1d91b4"/><path d="M131.52 124.6h5.24v5.24h-5.24zm.44.43h.41v4.37h-.41zm.77 0h.43v4.37h-.43v-4.37zm.8 0h.43v4.37h-.43zm.8 0h.42v4.37h-.43zm.79 0h.43v4.37h-.43zm.8 0h.4v4.37h-.4zm1.65-6.49h5.24v5.25h-5.24v-5.25zm.44.44h.41v4.37h-.41zm.77 0h.43v4.37h-.43v-4.37zm.8 0h.43v4.37h-.43zm.8 0h.42v4.37h-.43zm.79 0h.43v4.37h-.43zm.8 0h.4v4.37h-.4z" fill="#23a3c2"/><path d="M137.57 124.6h5.24v5.24h-5.24v-5.25zm.44.43h.41v4.37h-.41zm.77 0h.43v4.37h-.43v-4.37zm.8 0h.43v4.37h-.43zm.8 0h.42v4.37h-.43zm.79 0h.43v4.37h-.43zm.8 0h.4v4.37h-.4z" fill="#34bbde"/><path d="M143.62 124.6h5.24v5.24h-5.24zm.44.43h.41v4.37h-.41zm.77 0h.43v4.37h-.43zm.8 0h.43v4.37h-.43zm.8 0h.42v4.37h-.43zm.79 0h.43v4.37h-.43zm.8 0h.4v4.37h-.4z" fill="#23a3c2"/><path d="M143.62 118.54h5.24v5.25h-5.24zm.44.44h.41v4.37h-.41zm.77 0h.43v4.37h-.43zm.8 0h.43v4.37h-.43zm.8 0h.42v4.37h-.43zm.79 0h.43v4.37h-.43zm.8 0h.4v4.37h-.4zm1.65 5.61h5.24v5.25h-5.24zm.44.44h.41v4.37h-.41zm.77 0h.44v4.37h-.44zm.8 0h.43v4.37h-.43zm.8 0h.42v4.37h-.43zm.79 0h.43v4.37h-.43zm.8 0h.4v4.37h-.4z" fill="#34bbde"/><path d="M149.67 118.54h5.24v5.25h-5.24zm.44.44h.41v4.37h-.41zm.77 0h.44v4.37h-.44zm.8 0h.43v4.37h-.43zm.8 0h.42v4.37h-.43zm.79 0h.43v4.37h-.43zm.8 0h.4v4.37h-.4z" fill="#23a3c2"/><path d="M149.67 112.5h5.24v5.24h-5.24zm.44.43h.41v4.37h-.41v-4.37zm.77 0h.44v4.37h-.44v-4.37zm.8 0h.43v4.37h-.43v-4.37zm.8 0h.42v4.37h-.43v-4.37zm.79 0h.43v4.37h-.43v-4.37zm.8 0h.4v4.37h-.4v-4.37z" fill="#34bbde"/><path d="M155.72 124.6h5.24v5.24h-5.24zm.44.43h.41v4.37h-.41v-4.37zm.77 0h.43v4.37h-.43v-4.37zm.8 0h.43v4.37h-.43zm.8 0h.42v4.37h-.43zm.79 0h.43v4.37h-.43zm.8 0h.4v4.37h-.4z" fill="#23a3c2"/><path d="M142.49 138.34a1.45 1.45 0 110 2.89 1.45 1.45 0 010-2.9" fill="#d3ecec"/><path d="M142.49 138.75c.13 0 .25.02.37.07-.37.21-.22.78.21.79.16 0 .3-.1.37-.22.4.94-.68 1.82-1.53 1.25-.85-.56-.45-1.9.58-1.9" fill="#364548"/><path d="M146.33 148.76c-3.58-1.7-5.55-4.01-6.64-6.53a22.2 22.2 0 01-4.8.72 39.61 39.61 0 01-5.02-.01c3.29 3.28 7.33 5.8 14.81 5.85.56 0 1.1 0 1.65-.03" fill="#bdd9d7"/><path d="M141.02 144.56c-.5-.68-.98-1.52-1.33-2.33-1.33.38-2.93.62-4.8.72 1.29.7 3.11 1.34 6.13 1.6" fill="#d3ecec"/></g><path d="M137.8 91.28c2.76 2.12 2.82 2.15 4.98 3.1 1.87.73 4.42 1.97 5.2 3.05" fill="none" stroke="#000" stroke-width=".5"/><path d="M160.78 91.47a9.87 9.87 0 01-3.15 2.48c-1.54.66-2.57 1.35-4.03 1.27-1.58-.1-.86 1.14-1.16 1.95" fill="none" stroke="#000" stroke-width=".7"/><path fill="#717173" stroke="#000" stroke-width=".5" stroke-linejoin="round" paint-order="stroke fill markers" d="M145.98 90.72h8.16v11.99h-8.16z"/><path fill="#717173" stroke="#000" stroke-width=".4" stroke-linejoin="round" paint-order="stroke fill markers" d="M137.9 102.79h23.82v2.64H137.9z"/><path fill="#212122" stroke="#000" stroke-width=".24" stroke-linejoin="round" paint-order="stroke fill markers" d="M111.22 103.75h35.51v1.87h-35.51z"/><path fill="#212122" stroke="#000" stroke-width=".13" stroke-linejoin="round" paint-order="stroke fill markers" d="M111.74 103h1.5v.63h-1.5zM114.63 103.01h1.5v.63h-1.5z"/><rect width="67.16" height="41.74" x="116.16" y="49.3" ry=".49" fill="#111414" fill-opacity=".94" stroke="#000" stroke-width="1.61" stroke-linejoin="round" paint-order="stroke fill markers"/><g mask="url(#mask0)" transform="matrix(.14912 0 0 .14012 130.28 52.32)" fill="none"><path d="M246.94 27.64l-52.75-25.4a15.95 15.95 0 00-18.2 3.1L3.33 162.76a10.67 10.67 0 00.02 15.78l14.1 12.82a10.67 10.67 0 0013.62.6L239 34.24c6.98-5.3 17-.32 17 8.44v-.62a16 16 0 00-9.06-14.41z" fill="#0065a9"/><g filter="url(#b)"><path d="M246.94 228.36l-52.75 25.4a15.95 15.95 0 01-18.2-3.1L3.33 93.24a10.67 10.67 0 01.02-15.78l14.1-12.82a10.67 10.67 0 0113.62-.6L239 221.76c6.98 5.3 17 .32 17-8.44v.62a16 16 0 01-9.06 14.41z" fill="#007acc"/></g><g filter="url(#c)"><path d="M194.2 253.76a15.95 15.95 0 01-18.2-3.1c5.9 5.91 16 1.73 16-6.62V11.96c0-8.35-10.1-12.53-16-6.63a15.95 15.95 0 0118.2-3.1l52.73 25.37A16 16 0 01256 42.02v171.96a16 16 0 01-9.07 14.42z" fill="#1f9cf0"/></g><path fill-rule="evenodd" clip-rule="evenodd" d="M181.38 254.25a15.94 15.94 0 0012.7-.49l52.7-25.36a16 16 0 009.06-14.42V42.02a16 16 0 00-9.06-14.42l-52.7-25.36a15.94 15.94 0 00-18.19 3.1L75 97.38 31.04 64.02a10.66 10.66 0 00-13.61.61L3.33 77.45a10.67 10.67 0 000 15.78L41.42 128l-38.1 34.77a10.67 10.67 0 000 15.78l14.1 12.82a10.66 10.66 0 0013.61.6L75 158.62l100.9 92.06c1.6 1.6 3.47 2.8 5.49 3.58zm10.5-184.36L115.32 128l76.56 58.12z" fill="url(#d)" opacity=".25"/></g><rect width=".42" height=".52" x="174.79" y="102.66" ry=".15" fill="#161717" stroke="#000" stroke-width=".13" stroke-linejoin="round" paint-order="stroke fill markers"/><path fill="#212122" stroke="#000" stroke-width=".13" stroke-linejoin="round" paint-order="stroke fill markers" d="M116.13 103.01h1.5v.63h-1.5z"/><path fill="#212122" stroke="#000" stroke-width=".13" stroke-linejoin="round" paint-order="stroke fill markers" d="M117.62 103.01h1.5v.63h-1.5z"/><path fill="#212122" stroke="#000" stroke-width=".14" stroke-linejoin="round" paint-order="stroke fill markers" d="M119.12 103.02h8.65v.63h-8.65z"/><path fill="#212122" stroke="#000" stroke-width=".13" stroke-linejoin="round" paint-order="stroke fill markers" d="M127.77 103.01h1.5v.63h-1.5zM129.27 103.01h1.5v.63h-1.5zM130.77 103.01h1.5v.63h-1.5zM132.27 103.01h1.5v.63h-1.5zM134.75 102.99h1.5v.63h-1.5zM136.25 102.99h1.5v.63h-1.5z"/><path fill="#212122" stroke="#000" stroke-width=".13" stroke-linejoin="round" paint-order="stroke fill markers" d="M137.74 102.99h1.5v.63h-1.5zM140.36 102.98h3v.63h-3zM143.36 102.98h1.5v.63h-1.5z"/><path fill="#212122" stroke="#000" stroke-width=".13" stroke-linejoin="round" paint-order="stroke fill markers" d="M144.85 102.98h1.5v.63h-1.5z"/><path fill="#0a090a" stroke="#000" stroke-width=".14" stroke-linejoin="round" paint-order="stroke fill markers" d="M163.86 105.13h22.55v.38h-22.55z"/><path d="M176.08 143.19h-.1c-3.51.04-6.35 2.38-8.92 4.47l16.84-.45c-.71-1.06-1.87-2.24-4.37-3.3a8.85 8.85 0 00-3.45-.72zm7.82 4.02c1.36 2.04 1.04 3.62 5.39 2.85 6.6-1.17 8.6-3.22 8.6-3.22zm-16.84.45l-18.91.5c1.3.32 2.2.71 2.53 1.16 1.15 1.61 8.04 3.07 12.48 1.03 1.27-.58 2.55-1.6 3.9-2.7zm-18.91.5c-3.3-.82-9.15-1.16-14.4-.74-2.2.18-3.48.64-4.28 1.23zm-18.68.49l-16.28.43c2.92 1.91 9.72 4.35 12.66 3.6 2.41-.6 1.73-2.66 3.62-4.03zm-16.28.43c-.5-.33-.89-.65-1.12-.92-1.58-1.9-9.9 2.77-13.78.29-3.87-2.49-11.62-2.2-14.35-2.49-1.77-.19-3.67 2.16-6.36 4.06zm-35.6.94l-11.81.31c1.96 1.47 3.36 2.42 6.68 1.92 2-.3 3.68-1.2 5.12-2.23zm-11.81.31c-1.44-1.07-3.17-2.4-6.16-3.64-4.59-1.88-7.83.37-9.55 2.2v1.86z" fill="none"/><path d="M178.26 143.45c-2.7 0-4.74.96-8.74 4.13-4.3 3.4-5.98 4.02-10.45 3.87-3.34-.1-5.4-.7-6.89-2-.75-.64-1.78-1.01-3.88-1.39-3-.53-7.81-.75-11.47-.52-5 .3-6.18.83-7.45 3.35-.84 1.68-1.54 2.06-3.76 2.06-2.14 0-4.8-.65-8.08-2a16.5 16.5 0 01-4.25-2.31c-.4-.34-.91-.65-1.13-.7-.5-.13-1.97.08-4.87.7-4.84 1.04-6.28 1-8.76-.22-2.48-1.22-5.13-1.75-10.23-2.04-4.12-.24-4.62-.22-5.29.12-.32.16-1.43.97-2.47 1.79-2.43 1.92-3.31 2.5-4.78 3.21-1.64.79-3 1.05-5 .98-2.04-.07-2.45-.24-5.43-2.32a27.57 27.57 0 00-6.19-3.42 9.46 9.46 0 00-4.55-.37 9.5 9.5 0 00-3.77 2l-.89.8v2.6a20 20 0 00.1 2.7c.05.05 33.32.08 73.92.05l73.83-.03.08-2.97.04-2.96-.78.3a35.5 35.5 0 01-5.41 1.38c-3.13.5-3.96.18-5.1-1.97a9.07 9.07 0 00-3.96-3.7 8.86 8.86 0 00-4.39-1.12z" fill="#524a62"/><g clip-rule="evenodd" fill-rule="evenodd" stroke-linejoin="round" stroke-miterlimit="1.41"><path d="M93.94 121.9c8.92.62 16.9 2.27 22.84 4.47l.03-.4c5.93 2.4 9.6 5.44 9.4 8.5-.04.49-.18.96-.4 1.41l.55 1.18s.45.7-.53 2.04c-.86 1.18-5.06 6.26-7.3 8.65-.97 1.23-2.5 2.58-2.55 2.5-.07-.13 1.57-3.62 3.52-6.28a51.75 51.75 0 002.74-4.77 28.54 28.54 0 01-6.51 2.41v-.01c-6.2 1.36-14.32 1.9-23.24 1.29-10.2-.7-19.25-2.77-25.24-5.46l.94-13.6c6.3-1.83 15.55-2.63 25.75-1.93" fill="#a52b00" fill-rule="nonzero"/><path d="M58.4 132.12l1.2-2.14v-.25c.18-2.5 2.9-4.64 7.31-6.2L66 136.87c-1.94-1-2.21 1.72-2.21 1.72 1.24 2.72 10.56 25.66 1.27 7.11-.05.08-.52-.78-1.2-2.17a197.58 197.58 0 01-5.26-9.27c-.67-1.5-.19-2.13-.19-2.13" fill="#a52b00" fill-rule="nonzero"/><path d="M52.34 131.69l7.22-4.7.24-.67-2.02-3.49c-.2-.36-.22-.8-.05-1.18.18-.37.52-.62.92-.67l3.86-.4.52-.87-1.35-3.86c-.13-.4-.07-.83.17-1.17.25-.33.63-.5 1.02-.46l3.86.4.67-.74-.61-4.08c-.06-.41.08-.83.38-1.1.3-.28.7-.38 1.08-.26l3.7 1.21.8-.6.14-4.13c.02-.42.24-.8.58-1.01.34-.21.76-.22 1.1-.02l3.4 1.95.9-.43.9-4.02c.09-.4.37-.74.75-.87.37-.14.78-.06 1.08.21l2.97 2.62.96-.24 1.61-3.76c.17-.38.5-.65.9-.7.39-.05.78.11 1.02.43l2.43 3.2.97-.03 2.28-3.37c.23-.34.61-.53 1-.5.4.02.75.27.93.63l1.8 3.65c.31.05.63.1.95.17l2.85-2.83c.28-.3.7-.4 1.07-.3.38.12.68.43.79.83l1.08 3.94.92.37 3.3-2.19c.33-.22.75-.24 1.1-.06.36.19.6.55.63.97l.34 4.1.82.55 3.64-1.46c.36-.15.78-.09 1.09.17.3.25.47.66.43 1.08l-.42 4.11.7.7 3.83-.68c.4-.07.79.08 1.04.4.26.31.35.74.23 1.15l-1.17 3.95.56.83 3.88.13c.39.01.75.24.94.6.2.36.2.8.01 1.18l-1.86 3.63.4.95 3.76.92c.39.1.7.4.82.79.12.4.04.83-.2 1.16l-2.5 3.18.04.18 5.9 7.36s.93.85-.62 2.59c-1.37 1.54-8.26 7.52-11.9 10.65-1.55 1.61-2.6 2.6-2.7 2.5-.16-.15.91-3.2 4-6.66 2.4-3.12 5.58-7.96 4.96-8.6 0 0-.69-1.02-2.16-1.83-.05.04.06-.04 0 0 0 0-33.03 12.86-61.69-4-3.34-.86-5.52.85-5.52.85-.74.37.73 5.68 2 9.2 1.78 4.04 2.29 8.45 2.1 8.54-.1.06-1.19-2.5-2.12-4.41-2.37-3.92-6.84-11.38-7.63-13.17-.9-2.03.18-2.51.18-2.51" fill="#f74c00" fill-rule="nonzero"/><path d="M81.4 143.29l-.18-.19 10.54-.27c-7.75-12.1-15.24-3.29-16.04-2.31l-.16 2.36z" fill-rule="nonzero"/><path d="M122.52 133.38s8.88-2.84 10.6-6.43c0 0-9.58-8.94 3.16-16.85l-.44 11.17s3.84-3.3 4.1-9.5c0 0 10.81 6.26-2.95 15.08 0 0-.8 5.19-13 10.67z" fill="#f74c00" fill-rule="nonzero"/><path d="M87.72 126.24s-2.95-3.8-6.4-.44c0 0-2.84 4.6-.49 7.15 0 0 3.88 3.62 6.4.44 0 0 2.92-2.43.49-7.15" fill-rule="nonzero"/><path d="M83.93 127.31c-.1 1.4.63 2.58 1.62 2.65.99.06 1.87-1 1.97-2.4.1-1.4-.63-2.58-1.62-2.64-1-.07-1.88 1-1.97 2.4" fill="#fff" fill-rule="nonzero"/><path d="M102.06 126.25s-5.32-2.86-7.2 2.57c0 0-2 6.35 4.04 7.13 0 0 7.85-.99 3.16-9.7" fill-rule="nonzero"/><path d="M99.14 128.45c-.1 1.44.65 2.66 1.67 2.73 1.02.07 1.93-1.03 2.03-2.47.1-1.44-.65-2.66-1.67-2.73-1.02-.07-1.93 1.04-2.03 2.47" fill="#fff" fill-rule="nonzero"/><path d="M66.12 130.84s.82 4.74 7.61 10.13l1.96.61S83 130 91.2 144.18c0 0-2.73-1.89-10.52-.35 0 0 3.14 5.74 10.23 6.06 0 0-7.36 7.85-16.87-4.88 0 0-10.62-5.07-10.87-14.37z" fill="#f74c00" fill-rule="nonzero"/></g></g></svg>